Ax.Men.S05E09.Rygaard.vs.Rygaard.HDTV.XviD-LaMeR.avi

Complete name : Ax.Men.S05E09.Rygaard.vs.Rygaard.HDTV.XviD-LaMeR.avi
Format : AVI
Format/Info : Audio Video Interleave
File size : 350 MiB
Duration : 43mn 59s
Overall bit rate mode : Variable
Overall bit rate : 1 113 Kbps

Video
ID : 0
Format : MPEG-4 Visual
Format profile : Simple@L3
Format settings, BVOP : No
Format settings, QPel : No
Format settings, GMC : No warppoints
Format settings, Matrix : Default (H.263)
Codec ID : XVID
Codec ID/Hint : XviD
Duration : 43mn 59s
Bit rate : 974 Kbps
Width : 624 pixels
Height : 352 pixels
Display aspect ratio : 16:9
Frame rate : 29.970 fps
Color space : YUV
Chroma subsampling : 4:2:0
Bit depth : 8 bits
Scan type : Progressive
Compression mode : Lossy
Bits/(Pixel*Frame) : 0.148
Stream size : 307 MiB (88%)
Writing library : XviD 63

Audio
ID : 1
Format : MPEG Audio
Format version : Version 1
Format profile : Layer 3
Mode : Joint stereo
Mode extension : MS Stereo
Codec ID : 55
Codec ID/Hint : MP3
Duration : 31mn 38s
Source duration : 43mn 59s
Bit rate mode : Variable
Bit rate : 125 Kbps
Channel(s) : 2 channels
Sampling rate : 48.0 KHz
Compression mode : Lossy
Stream size : 39.4 MiB (11%)
Alignment : Aligned on interleaves
Interleave, duration : 24 ms (0.72 video frame)